<?xml version="1.0" standalone="no"?>
<!DOCTYPE svg PUBLIC "-//W3C//DTD SVG 20010904//EN"
 "http://www.w3.org/TR/2001/REC-SVG-20010904/DTD/svg10.dtd">
<svg version="1.0" xmlns="http://www.w3.org/2000/svg"
 width="1403.000000pt" height="1403.000000pt" viewBox="0 0 1403.000000 1403.000000"
 preserveAspectRatio="xMidYMid meet">
<metadata>
Created by potrace 1.15, written by Peter Selinger 2001-2017
</metadata>
<g transform="translate(0.000000,1403.000000) scale(0.100000,-0.100000)"
fill="#ffffff" stroke="none">
<path d="M6575 14023 c-520 -33 -1109 -139 -1603 -288 -2587 -785 -4513 -3017
-4901 -5680 -57 -391 -65 -521 -66 -1030 0 -504 6 -612 56 -975 253 -1852
1245 -3530 2756 -4661 678 -508 1462 -894 2288 -1129 1144 -324 2410 -347
3575 -63 2872 698 5012 3148 5314 6083 53 520 46 1127 -19 1645 -156 1227
-648 2406 -1419 3400 -302 390 -707 805 -1089 1118 -1004 823 -2221 1355
-3487 1526 -344 46 -451 53 -905 56 -242 1 -467 1 -500 -2z m1075 -187 c904
-91 1708 -326 2495 -730 860 -441 1626 -1070 2236 -1838 751 -945 1238 -2075
1409 -3267 45 -313 61 -516 67 -851 20 -1078 -191 -2072 -647 -3051 -466 -997
-1200 -1895 -2105 -2573 -1529 -1146 -3487 -1595 -5380 -1235 -2086 396 -3884
1759 -4838 3665 -378 756 -605 1550 -694 2434 -26 253 -26 1000 0 1250 76 739
229 1356 498 2011 89 215 308 650 432 859 590 989 1408 1807 2397 2397 209
124 644 343 859 432 339 139 641 238 996 326 396 98 739 151 1230 189 139 10
889 -2 1045 -18z"/>
<path d="M6595 13630 c-1208 -86 -2284 -451 -3273 -1112 -1281 -856 -2242
-2167 -2668 -3643 -145 -498 -222 -948 -255 -1480 -14 -237 -6 -746 16 -980
117 -1235 552 -2370 1290 -3361 619 -831 1444 -1518 2377 -1979 2011 -994
4407 -898 6328 253 1717 1029 2879 2772 3160 4741 50 350 64 558 64 941 0 351
-9 515 -45 810 -231 1915 -1289 3631 -2904 4711 -374 250 -847 498 -1250 654
-593 230 -1182 369 -1820 431 -196 18 -831 27 -1020 14z m345 -272 c1 -29 7
-212 14 -407 13 -347 14 -355 36 -373 12 -10 31 -18 41 -18 17 0 19 -8 19 -69
l0 -69 -112 -6 c-62 -3 -162 -7 -223 -8 l-110 -3 -3 73 c-2 57 0 72 11 72 8 0
25 8 37 18 26 21 26 2 15 346 -7 224 -9 250 -26 267 -11 11 -30 19 -44 19 -24
0 -25 2 -25 68 l0 69 100 16 c56 9 120 25 143 36 23 11 61 20 85 20 l42 1 0
-52z m2021 -287 c333 -115 396 -142 454 -193 93 -81 101 -223 17 -311 -33 -35
-120 -61 -170 -52 l-37 6 30 -19 c40 -25 113 -106 125 -138 14 -35 13 -108 -2
-156 -15 -52 -87 -132 -135 -151 -58 -23 -134 -30 -199 -18 -43 8 -693 224
-712 236 -1 1 8 31 20 66 l23 64 42 -3 c32 -3 46 1 59 17 20 23 194 523 194
557 0 20 -34 57 -62 66 -7 3 -3 26 11 71 13 37 24 67 25 67 1 0 144 -49 317
-109z m-1364 14 c132 -31 193 -86 200 -178 3 -29 -2 -122 -10 -207 -12 -126
-13 -158 -2 -168 10 -11 17 -11 35 -2 12 6 23 10 24 8 34 -44 66 -100 61 -108
-3 -5 -27 -22 -52 -37 -36 -21 -62 -27 -124 -31 -87 -5 -141 9 -193 52 l-30
23 -45 -20 c-63 -28 -164 -34 -234 -13 -99 29 -148 88 -149 180 -1 138 104
212 320 224 l102 5 0 57 c0 62 -8 74 -53 85 -33 9 -77 -17 -77 -44 0 -30 -38
-70 -75 -77 -46 -8 -90 3 -125 33 -63 53 -27 153 72 204 22 11 59 24 81 29 54
12 192 4 274 -15z m-2478 -362 c79 -197 154 -369 165 -381 17 -19 28 -23 54
-18 31 5 34 3 53 -40 39 -92 47 -82 -122 -149 -83 -33 -156 -62 -161 -64 -5
-2 -12 6 -15 18 -5 20 -7 19 -32 -13 -59 -78 -148 -119 -261 -119 -139 -1
-240 69 -308 211 -34 71 -37 84 -37 167 0 82 3 97 33 157 52 107 148 172 271
185 57 5 61 8 55 27 -3 12 -13 32 -21 45 -13 20 -20 22 -51 17 -76 -13 -72
-15 -99 52 -14 35 -24 64 -22 65 2 1 40 20 84 42 44 22 109 62 144 89 62 46
94 64 116 65 6 1 75 -160 154 -356z m766 230 c83 -43 151 -140 178 -254 7 -26
6 -26 -126 -53 -72 -15 -162 -34 -199 -42 l-66 -15 8 -30 c14 -47 47 -94 75
-107 77 -35 176 25 200 121 4 16 13 26 19 24 6 -2 37 -13 69 -23 57 -18 59
-19 54 -49 -9 -58 -49 -125 -102 -173 -70 -65 -165 -97 -281 -96 -71 0 -90 4
-147 32 -76 38 -109 72 -150 161 -42 89 -49 219 -17 305 37 97 125 177 233
212 62 20 201 13 252 -13z m4398 -498 c54 -32 100 -61 103 -66 2 -4 -25 -192
-61 -417 -36 -226 -62 -418 -59 -428 4 -11 17 -30 30 -44 l23 -25 -35 -57
c-33 -54 -37 -57 -58 -45 -85 45 -456 273 -456 279 0 6 50 94 66 116 1 2 16
-4 33 -12 50 -26 79 -21 95 18 7 18 17 51 20 72 l6 39 -123 73 c-68 39 -127
72 -132 72 -13 0 -105 -92 -105 -105 0 -6 14 -24 30 -40 17 -16 30 -32 30 -37
0 -14 -61 -108 -70 -108 -9 0 -307 176 -324 191 -4 4 8 35 29 68 31 52 39 60
55 51 29 -16 77 -12 118 9 20 11 174 123 342 250 278 210 306 229 325 217 11
-7 64 -39 118 -71z m-6691 -230 c68 -36 129 -69 136 -73 9 -6 5 -22 -19 -66
-29 -52 -34 -57 -58 -52 -127 29 -171 29 -263 0 -57 -19 -164 -94 -173 -123
-6 -21 21 -68 82 -140 l29 -34 42 38 c48 43 53 72 22 123 -11 18 -20 34 -20
37 0 6 91 75 99 75 9 0 265 -339 260 -343 -2 -2 -23 -18 -45 -35 -23 -18 -45
-32 -48 -32 -3 0 -25 14 -48 30 -23 17 -54 30 -70 30 -25 0 -98 -37 -98 -50 0
-3 33 -48 73 -100 49 -65 80 -96 96 -98 29 -5 120 57 160 107 62 78 81 135 90
266 l6 89 64 13 c35 7 65 12 66 11 10 -12 75 -352 69 -358 -5 -4 -166 -125
-357 -270 -388 -292 -344 -271 -403 -188 l-25 36 26 40 c34 51 41 37 -167 312
-174 229 -181 235 -239 206 -36 -18 -30 -22 -85 57 -24 33 -25 40 -13 52 34
33 665 504 676 505 7 0 68 -29 135 -65z m3973 -10 c723 -80 1431 -309 2050
-664 155 -89 458 -293 598 -402 321 -250 644 -570 894 -884 968 -1218 1343
-2817 1018 -4340 -159 -741 -485 -1457 -937 -2053 -278 -367 -663 -752 -1030
-1030 -1549 -1174 -3661 -1382 -5414 -533 -1691 820 -2807 2463 -2944 4336
-13 181 -13 573 0 746 71 920 361 1769 865 2524 199 297 392 532 655 795 263
263 498 456 795 655 746 497 1592 790 2500 864 175 15 775 6 950 -14z m3503
-310 c149 -125 188 -163 181 -175 -5 -8 -24 -33 -43 -54 l-34 -39 -35 16 c-64
31 -51 41 -290 -246 -102 -121 -157 -195 -157 -210 0 -12 9 -33 20 -47 11 -14
19 -29 19 -35 0 -5 -19 -31 -42 -58 l-42 -47 -197 166 c-109 91 -198 169 -198
173 0 3 19 28 43 55 l43 49 33 -17 c18 -10 43 -15 55 -12 22 6 375 420 388
455 5 14 -1 32 -18 56 l-25 37 43 53 c24 29 48 50 54 46 6 -3 97 -78 202 -166z
m633 -596 l287 -320 -61 -144 c-34 -80 -66 -145 -71 -145 -6 0 -34 10 -62 21
l-52 22 5 102 c7 123 -8 177 -71 263 -48 64 -88 96 -114 88 -10 -3 -46 -32
-81 -64 l-64 -57 35 -38 c42 -44 89 -50 131 -17 14 11 29 20 33 20 13 0 84
-73 84 -86 0 -7 -70 -75 -156 -152 l-155 -140 -44 46 -43 46 29 42 c38 56 38
94 -2 139 l-31 35 -89 -82 c-114 -105 -115 -114 -21 -207 93 -94 148 -115 300
-115 l112 0 16 -55 c9 -31 17 -60 18 -65 0 -5 -75 -33 -169 -62 l-170 -52 -26
26 c-14 15 -149 164 -299 331 l-273 303 50 50 50 50 38 -26 c21 -14 41 -26 45
-26 22 0 447 384 455 411 4 12 -2 34 -13 53 l-20 33 46 47 c26 25 51 46 57 45
5 0 139 -144 296 -320z m-9092 241 l45 -39 -19 -40 c-16 -37 -16 -42 -2 -64
28 -44 436 -377 461 -377 13 0 35 9 49 20 14 11 29 20 34 20 4 -1 30 -20 57
-44 l48 -42 -163 -195 c-89 -107 -164 -196 -165 -198 -2 -2 -28 17 -58 42
l-54 47 18 35 c10 19 16 44 13 54 -4 17 -413 370 -413 357 0 -2 94 -143 209
-313 l208 -308 -28 -35 c-15 -19 -38 -47 -51 -61 l-23 -27 -339 159 c-187 87
-341 157 -343 155 -2 -2 88 -81 200 -175 218 -182 231 -189 281 -150 l27 21
36 -29 c83 -65 88 -42 -44 -200 l-118 -141 -25 19 c-14 10 -38 30 -54 43 l-30
25 19 41 c14 30 16 46 9 58 -6 10 -75 72 -155 140 -304 260 -309 263 -363 221
-30 -23 -34 -22 -103 38 l-33 28 151 180 c82 99 160 190 172 202 l22 23 179
-86 c98 -47 179 -84 180 -82 2 2 -48 77 -110 167 -62 91 -110 170 -106 175 23
39 315 376 325 376 7 -1 32 -18 56 -40z m-787 -1490 c460 -49 472 -49 507 -11
l26 29 57 -32 c32 -17 58 -35 58 -40 0 -16 -253 -486 -262 -486 -11 0 -88 39
-105 52 -9 7 -8 19 3 50 19 56 11 73 -39 87 -100 26 -93 30 -168 -109 -38 -69
-68 -128 -69 -132 -1 -15 91 -98 109 -98 10 0 31 14 46 32 l26 31 60 -28 c32
-16 59 -33 59 -38 0 -9 -91 -185 -151 -293 l-29 -51 -59 31 -60 31 6 46 c4 32
0 57 -11 80 -9 19 -129 168 -266 332 -138 164 -250 300 -250 303 0 12 129 254
135 254 2 0 172 -18 377 -40z m10009 -184 c19 -4 208 5 421 20 213 15 393 24
400 21 8 -2 40 -61 72 -130 l58 -125 -282 -312 -281 -312 2 -51 3 -50 -58 -29
c-32 -16 -60 -27 -63 -25 -6 7 -243 490 -243 497 0 4 27 19 61 35 59 29 61 29
72 10 14 -26 54 -65 66 -65 5 0 34 22 63 49 l53 49 -65 132 -65 132 -56 -5
c-80 -7 -103 -21 -96 -60 3 -18 8 -39 11 -47 5 -11 -9 -23 -49 -43 -30 -15
-60 -27 -66 -27 -6 0 -48 78 -93 173 l-83 172 60 31 61 31 32 -32 c17 -18 47
-35 65 -39z m-10346 -691 c147 -38 275 -134 328 -246 36 -78 51 -179 38 -269
-9 -69 -175 -637 -191 -653 -4 -5 -35 -1 -69 8 l-61 18 0 41 c0 46 -6 59 -35
73 -42 22 -527 164 -548 161 -12 -2 -32 -19 -45 -39 l-24 -37 -64 21 c-35 12
-64 25 -64 30 0 31 178 585 208 646 60 124 175 223 289 250 61 14 174 12 238
-4z m11336 -169 c142 -30 244 -111 306 -241 47 -100 62 -198 41 -277 l-15 -57
35 -8 c30 -7 37 -14 48 -53 8 -25 14 -46 14 -47 0 -5 -322 -164 -324 -161 -2
2 -17 25 -35 51 l-33 48 64 62 c76 73 108 133 108 203 0 123 -100 181 -271
156 -212 -30 -353 -125 -366 -245 -7 -56 27 -136 75 -178 36 -32 146 -89 171
-89 7 0 11 -6 8 -12 -2 -7 -12 -39 -21 -72 l-17 -58 -37 7 c-102 19 -233 113
-296 214 -39 61 -75 160 -85 237 -25 170 50 333 199 433 132 87 284 118 431
87z m-326 -1046 c14 -63 44 -77 456 -204 l386 -118 7 -92 c4 -50 9 -114 13
-142 l5 -51 -358 -183 c-198 -101 -369 -190 -382 -198 -13 -8 -28 -33 -34 -57
l-11 -42 -66 -7 c-35 -3 -66 -5 -67 -3 -1 1 -11 112 -23 247 -12 135 -23 259
-25 277 -5 37 1 41 84 45 l55 2 6 -38 c3 -20 13 -45 22 -54 15 -15 21 -14 69
1 88 28 83 17 71 177 -6 78 -15 146 -20 150 -4 5 -37 14 -72 21 -59 13 -64 12
-77 -6 -8 -10 -14 -33 -14 -51 0 -27 -4 -32 -31 -38 -17 -3 -49 -6 -70 -6 -37
0 -38 1 -43 43 -9 67 -26 269 -26 309 0 36 1 37 43 41 98 9 95 9 102 -23z
m-10971 -599 l63 -28 6 -258 c4 -142 7 -343 7 -447 l0 -188 -69 0 -69 0 -6 34
c-11 60 -9 60 -324 57 -320 -3 -324 -3 -339 -68 l-9 -38 -66 -3 -66 -3 -6 123
c-3 68 -8 264 -10 436 l-5 313 127 63 c177 88 162 87 195 14 l27 -61 -23 -15
c-46 -32 -105 -102 -133 -158 -26 -53 -29 -69 -29 -162 0 -80 3 -105 15 -112
8 -6 56 -9 105 -8 102 3 107 8 85 88 -12 44 -27 54 -92 65 l-38 6 0 64 0 65
148 0 c81 0 178 3 215 7 l68 6 -3 -69 -3 -68 -34 -7 c-71 -15 -101 -51 -101
-126 0 -23 2 -23 124 -23 161 0 160 -1 154 130 -3 79 -8 105 -30 150 -29 60
-98 135 -165 181 l-42 29 16 38 c8 20 21 49 29 64 l14 27 101 -45 c55 -24 129
-57 163 -73z m11049 -537 c12 -4 17 -16 17 -43 0 -23 6 -44 16 -52 15 -12 502
-88 570 -89 35 0 59 22 69 63 6 24 11 27 34 23 14 -3 45 -8 69 -11 23 -4 42
-12 42 -18 0 -39 -82 -588 -95 -639 -70 -266 -292 -402 -566 -344 -183 39
-308 156 -354 331 -23 89 -19 152 27 488 l42 309 56 -7 c30 -3 63 -8 73 -11z
m-10969 -421 c2 -10 19 -87 36 -171 25 -117 29 -156 20 -166 -6 -8 -83 -76
-171 -152 -134 -117 -159 -143 -159 -166 0 -16 2 -28 5 -28 29 0 204 46 217
57 9 9 18 33 20 56 l3 41 63 14 c35 7 66 11 69 9 6 -7 112 -501 108 -505 -9
-9 -130 -32 -132 -25 -2 4 -12 23 -23 41 -16 26 -26 32 -53 32 -60 0 -550
-109 -569 -127 -11 -10 -18 -30 -18 -54 0 -34 -3 -39 -27 -45 -16 -3 -45 -10
-67 -16 -21 -5 -40 -8 -41 -6 -2 2 -36 153 -74 336 -92 429 -93 492 -9 587 49
55 111 80 198 80 78 -1 129 -24 185 -86 l38 -42 86 89 c112 115 143 157 150
202 6 34 9 37 56 48 71 17 83 16 89 -3z m10761 -715 c54 -20 56 -23 51 -50 -7
-35 7 -73 31 -83 109 -44 540 -184 554 -180 10 3 27 21 39 40 l21 33 62 -20
c34 -12 64 -22 66 -24 4 -4 -269 -805 -278 -816 -8 -10 -310 -42 -318 -35 -3
3 -8 35 -10 70 l-5 64 47 13 c119 33 223 142 259 270 16 57 16 64 2 78 -18 18
-165 74 -176 67 -4 -2 -13 -25 -20 -50 -17 -59 -4 -87 50 -115 22 -11 40 -24
40 -28 0 -11 -35 -100 -42 -107 -5 -6 -374 115 -398 130 -5 3 1 31 12 63 l22
58 60 -4 c69 -5 83 5 111 71 12 29 13 38 3 42 -175 63 -215 75 -234 71 -45
-12 -91 -159 -80 -259 6 -64 49 -168 92 -224 13 -17 24 -36 24 -40 0 -5 -21
-30 -47 -55 l-48 -47 -128 125 -129 125 142 412 c78 227 144 415 147 420 6 11
16 9 78 -15z m-10334 -826 l117 -261 -66 -28 c-54 -23 -66 -25 -70 -13 -3 8
-20 30 -38 48 -25 25 -39 32 -55 27 -48 -16 -554 -244 -556 -252 -6 -17 57
-80 106 -107 30 -16 74 -30 105 -33 l54 -6 6 -58 c4 -33 4 -64 1 -69 -4 -6
-69 -10 -159 -10 l-153 0 -167 374 c-91 205 -166 378 -166 385 0 6 47 59 104
119 l105 107 47 -46 47 -47 -26 -34 c-43 -56 -57 -101 -57 -182 0 -41 3 -77 8
-79 10 -7 564 241 574 256 10 16 9 76 -2 102 -7 17 0 24 49 47 31 15 60 26 66
24 5 -1 62 -120 126 -264z m9998 -242 c19 -13 20 -18 10 -46 -24 -61 -16 -69
245 -231 134 -84 252 -153 262 -153 10 0 32 13 49 29 l30 30 54 -34 c29 -19
55 -36 58 -39 8 -7 -269 -446 -281 -446 -9 0 -271 80 -361 110 l-29 10 30 -32
c150 -162 244 -269 244 -279 0 -12 -258 -429 -266 -429 -2 0 -29 16 -60 36
-42 27 -54 40 -49 52 17 43 17 78 -2 94 -31 28 -485 308 -499 308 -7 0 -28
-13 -47 -30 l-34 -29 -57 36 c-34 20 -55 41 -52 48 4 11 253 414 262 424 1 1
30 -14 63 -34 51 -32 59 -40 51 -56 -6 -10 -10 -33 -10 -53 0 -34 1 -35 226
-176 124 -78 227 -140 229 -138 1 2 -85 100 -192 218 -107 118 -220 243 -250
277 l-55 62 38 61 c21 34 40 63 44 65 3 2 168 -45 365 -105 197 -60 360 -108
362 -106 7 7 -444 281 -469 284 -19 3 -34 -3 -53 -22 -14 -14 -28 -26 -31 -26
-10 0 -114 64 -114 70 0 5 113 189 176 288 l15 23 38 -23 c21 -13 48 -30 60
-38z m-9754 -440 c83 -28 146 -72 219 -151 106 -115 175 -274 176 -404 0 -66
-24 -156 -58 -219 -41 -75 -140 -168 -222 -209 -209 -105 -416 -65 -582 112
-178 189 -228 406 -138 599 36 77 139 187 212 227 123 67 277 85 393 45z
m8867 -787 l47 -46 -25 -43 c-15 -25 -23 -51 -20 -61 3 -10 39 -51 78 -90 l73
-72 199 -36 c221 -41 270 -44 313 -21 30 15 30 15 78 -34 l48 -49 -193 -200
-193 -201 -41 37 c-50 45 -51 47 -32 75 21 30 20 55 -2 67 -26 14 -182 53
-197 49 -16 -4 36 -193 59 -216 15 -15 18 -15 46 1 34 20 49 15 93 -31 l28
-29 -142 -147 -143 -147 -49 49 -49 49 21 34 c31 50 27 118 -20 329 l-41 185
-79 78 c-44 42 -88 77 -98 77 -10 0 -35 -11 -55 -25 -20 -14 -40 -25 -44 -25
-3 0 -28 21 -54 47 l-47 46 192 198 c106 109 194 199 197 199 2 0 26 -21 52
-47z m-7973 -242 c-30 -91 -228 -735 -226 -737 1 -1 84 83 185 187 117 122
182 197 182 210 0 12 -10 34 -21 51 l-22 30 51 50 50 51 131 -129 132 -128
-48 -48 -48 -48 -42 21 c-31 15 -46 18 -60 10 -33 -17 -413 -419 -413 -437 0
-9 10 -32 21 -51 l22 -35 -49 -49 -49 -48 -182 177 -181 177 78 250 c44 138
82 261 85 275 3 18 -27 -9 -110 -95 -73 -76 -115 -128 -115 -141 0 -12 10 -34
21 -49 l22 -27 -52 -51 -51 -52 -130 130 -130 130 48 48 49 48 37 -22 c29 -17
42 -19 59 -12 12 6 139 132 282 280 l260 269 111 -105 c103 -96 111 -106 103
-130z m1137 -1156 c60 -18 127 -72 157 -129 29 -54 31 -174 3 -226 -102 -194
-365 -197 -463 -6 -58 113 -23 252 81 324 79 53 137 63 222 37z m5653 -1 c99
-29 181 -140 181 -244 0 -133 -127 -260 -260 -260 -133 0 -260 127 -260 260 0
101 82 215 176 244 64 19 99 19 163 0z m-1243 -229 c126 -62 229 -201 270
-364 25 -99 16 -249 -18 -324 -75 -160 -261 -267 -467 -267 -108 0 -174 25
-249 95 -70 65 -115 139 -154 250 -52 152 -48 298 13 417 32 62 119 142 194
178 148 70 288 76 411 15z m-3111 -80 c44 -8 113 -14 153 -15 60 0 204 -29
219 -44 2 -2 -39 -164 -91 -360 -76 -287 -93 -362 -86 -382 7 -18 28 -34 70
-52 33 -15 60 -33 60 -40 0 -8 -7 -38 -16 -68 -14 -48 -18 -53 -37 -48 -12 3
-150 40 -307 83 -321 87 -297 72 -270 170 l11 43 63 -7 c95 -10 94 -12 171
276 36 136 63 253 60 262 -6 13 -43 33 -107 56 l-26 10 15 58 c16 63 21 73 31
73 4 0 43 -7 87 -15z m2035 -115 c213 -34 330 -185 355 -460 32 -353 -224
-568 -629 -529 -114 11 -183 47 -215 113 -23 46 -24 51 -10 90 21 60 65 86
146 86 58 0 68 -3 94 -29 16 -16 29 -38 29 -49 0 -35 37 -57 92 -55 107 5 168
74 168 192 l0 62 -42 -25 c-114 -65 -292 -76 -400 -23 -98 48 -156 137 -166
252 -15 196 139 340 402 374 88 12 104 12 176 1z m-1041 -21 c256 -41 377
-187 374 -449 -2 -178 -44 -300 -137 -398 -85 -90 -194 -132 -344 -132 -167 0
-351 61 -408 136 -33 43 -42 109 -21 151 55 105 267 68 267 -47 0 -24 7 -43
20 -55 25 -23 107 -31 153 -16 64 22 117 103 117 182 l0 27 -42 -16 c-68 -25
-228 -22 -300 7 -83 32 -161 107 -188 179 -43 113 -9 267 76 341 96 85 258
119 433 90z"/>
<path d="M8992 12878 c-12 -16 -62 -154 -62 -172 0 -15 99 -46 144 -46 93 0
142 109 76 170 -27 25 -105 60 -136 60 -6 0 -16 -6 -22 -12z"/>
<path d="M8832 12430 c-23 -66 -39 -127 -35 -136 9 -23 60 -45 117 -51 42 -4
57 -1 85 19 71 47 96 139 55 195 -21 28 -107 77 -155 88 -25 6 -27 3 -67 -115z"/>
<path d="M4765 12516 c-13 -13 -27 -36 -31 -51 -15 -60 46 -224 103 -278 17
-15 46 -30 65 -34 31 -4 41 -1 73 29 l37 34 -64 159 -64 160 -47 3 c-39 3 -51
-1 -72 -22z"/>
<path d="M9960 12219 c-52 -44 -94 -83 -94 -87 1 -3 35 -28 77 -54 l75 -47 22
117 c12 64 24 125 26 135 3 9 2 17 -3 16 -4 0 -51 -36 -103 -80z"/>
<path d="M6770 11989 c-1000 -48 -1951 -393 -2755 -998 -357 -269 -707 -619
-976 -976 -376 -499 -650 -1050 -818 -1646 -269 -953 -245 -1990 69 -2929 424
-1270 1349 -2321 2555 -2906 534 -258 1082 -411 1705 -476 190 -20 784 -17
978 5 1020 115 1913 495 2697 1148 137 114 426 399 546 539 661 769 1058 1658
1183 2650 59 466 44 1034 -40 1500 -300 1664 -1428 3065 -2993 3716 -529 221
-1090 345 -1691 374 -223 10 -231 10 -460 -1z m750 -154 c968 -106 1851 -479
2586 -1091 1443 -1201 2063 -3108 1599 -4919 -45 -175 -156 -520 -173 -537
-19 -19 -396 -68 -667 -88 -425 -30 -717 -23 -1020 23 l-142 23 -28 -86 c-15
-47 -42 -122 -60 -168 -38 -94 -46 -80 65 -102 207 -39 345 -52 612 -57 346
-7 557 4 1012 54 l59 6 -70 -134 c-38 -74 -93 -173 -122 -221 l-52 -86 -57 -6
c-284 -31 -767 -45 -962 -27 -145 14 -336 43 -572 89 l-147 29 -44 -67 c-25
-36 -77 -106 -116 -155 -39 -49 -68 -92 -64 -95 5 -4 87 -21 183 -38 96 -18
234 -43 307 -57 334 -62 597 -81 947 -65 136 6 250 9 252 7 5 -5 -143 -186
-259 -316 l-102 -113 -220 5 c-240 6 -358 21 -705 88 -295 57 -492 87 -664
100 l-152 12 -164 -125 c-91 -69 -209 -155 -263 -193 -54 -37 -96 -69 -94 -71
2 -2 59 4 128 13 168 22 492 22 659 -1 69 -9 222 -35 340 -57 376 -71 474 -87
610 -103 73 -9 135 -18 137 -20 6 -6 -188 -154 -330 -251 -117 -79 -132 -87
-165 -82 -20 3 -123 21 -229 41 -491 91 -780 97 -1278 26 -249 -36 -483 -88
-701 -155 -100 -31 -124 -44 -247 -130 l-136 -95 -117 82 c-109 76 -125 84
-277 133 -268 87 -530 145 -842 185 -447 57 -704 47 -1203 -46 -105 -20 -198
-34 -205 -31 -23 9 -263 181 -360 258 l-98 77 58 7 c137 16 345 50 584 95 418
80 462 85 749 85 188 -1 287 -5 374 -18 66 -9 121 -15 123 -13 2 1 -23 20 -54
41 -93 61 -288 202 -390 282 l-94 73 -147 -10 c-179 -13 -338 -37 -672 -100
-380 -72 -607 -100 -822 -100 l-77 0 -97 107 c-89 98 -240 281 -258 311 -6 10
47 11 276 6 394 -9 557 7 1049 100 130 25 259 48 288 52 28 4 51 8 51 10 0 2
-35 48 -77 102 -43 54 -96 123 -117 155 -22 31 -46 57 -53 57 -8 0 -108 -18
-221 -39 -411 -79 -604 -94 -977 -80 -306 11 -486 26 -502 42 -32 34 -239 415
-229 424 3 3 74 -2 158 -11 395 -41 932 -54 1143 -28 159 20 419 63 428 71 4
4 -8 48 -27 97 -18 49 -44 122 -57 163 l-24 73 -40 -5 c-22 -3 -105 -16 -185
-29 -132 -20 -178 -23 -500 -23 -202 1 -418 6 -500 13 -146 13 -515 58 -555
68 -50 13 -209 548 -275 929 -55 319 -64 437 -64 820 0 300 3 376 23 534 94
775 347 1477 758 2106 306 466 705 892 1148 1225 256 192 475 326 775 474 554
274 1136 433 1775 485 164 14 694 5 865 -14z m-1805 -9144 c436 -58 695 -125
1098 -283 l178 -70 156 61 c414 164 704 236 1168 291 219 26 493 28 670 6 66
-9 126 -16 133 -16 35 0 0 -23 -115 -75 -817 -369 -1708 -505 -2585 -394 -432
54 -893 178 -1278 344 -275 119 -303 134 -247 136 12 0 69 7 127 14 150 20
489 13 695 -14z"/>
<path d="M6983 11191 c-100 -182 -206 -324 -348 -466 -544 -542 -1325 -626
-2125 -227 -96 48 -178 89 -183 90 -4 2 -6 -1075 -4 -2395 3 -2165 5 -2410 20
-2518 39 -288 87 -467 185 -702 130 -310 299 -552 566 -810 224 -217 454 -389
986 -740 415 -274 688 -458 818 -550 56 -40 107 -73 112 -73 4 0 86 54 182
121 95 67 353 240 573 386 608 404 849 580 1074 785 474 435 730 928 818 1578
15 114 17 341 20 2523 2 1320 0 2397 -4 2395 -5 -1 -87 -42 -183 -90 -264
-132 -509 -208 -774 -239 -136 -16 -392 -6 -521 20 -486 100 -883 399 -1151
869 l-43 76 -18 -33z m65 -480 c157 -223 454 -445 757 -566 95 -38 247 -81
358 -102 140 -26 442 -23 612 5 163 28 396 88 543 141 l112 40 -3 -2187 c-2
-2045 -4 -2194 -20 -2292 -51 -295 -115 -503 -228 -730 -264 -532 -550 -791
-1881 -1703 -158 -108 -293 -197 -299 -197 -7 0 -176 113 -378 252 -1261 867
-1544 1127 -1802 1653 -113 232 -178 441 -226 737 -16 94 -18 290 -20 2285
l-3 2182 112 -40 c147 -53 380 -113 543 -140 156 -27 462 -32 585 -11 380 67
713 233 975 484 56 53 126 131 156 172 29 41 57 75 60 76 3 0 25 -26 47 -59z"/>
<path d="M6934 10557 c-123 -146 -319 -297 -520 -404 l-92 -48 143 -463 c78
-254 145 -465 148 -468 3 -3 22 -1 41 6 l36 11 2 482 3 482 353 3 352 2 0
-482 0 -483 57 -17 c32 -9 58 -16 59 -15 0 1 57 204 126 452 l124 449 -125 62
c-221 108 -423 258 -563 418 -40 44 -74 82 -77 83 -3 0 -33 -31 -67 -70z"/>
<path d="M6920 9030 l0 -1090 -1055 0 -1055 0 0 -135 0 -135 1055 0 1055 0 0
-1950 0 -1950 140 0 140 0 0 1950 0 1950 995 0 995 0 0 135 0 135 -995 0 -995
0 -2 1088 -3 1087 -137 3 -138 3 0 -1091z"/>
<path d="M5890 9969 c-107 -23 -319 -42 -368 -33 -31 6 -35 5 -26 -7 6 -8 172
-225 369 -484 197 -258 358 -471 359 -472 1 -1 22 11 46 28 25 17 65 41 90 54
25 13 51 28 59 33 10 7 -33 105 -203 453 -119 244 -222 445 -228 445 -7 1 -51
-7 -98 -17z"/>
<path d="M7860 9549 c-107 -237 -196 -434 -197 -438 -2 -3 21 -19 50 -34 28
-16 80 -47 115 -69 34 -23 64 -39 66 -37 8 9 670 925 682 944 14 21 14 21
-134 22 -126 0 -277 16 -367 39 -18 4 -41 -41 -215 -427z"/>
<path d="M4650 9608 l0 -356 608 -331 c605 -329 607 -330 622 -308 8 12 43 57
78 101 35 43 60 82 55 86 -4 4 -303 258 -663 565 -360 307 -665 567 -677 578
l-23 20 0 -355z"/>
<path d="M8718 9364 c-345 -307 -627 -563 -627 -567 -1 -4 23 -38 53 -75 29
-37 65 -84 79 -104 l25 -37 538 326 c297 179 545 331 552 337 9 9 12 87 10
346 l-3 334 -627 -560z"/>
<path d="M6653 9088 l-33 -8 -2 -178 -3 -177 -69 143 c-38 78 -75 142 -81 142
-12 0 -172 -96 -178 -108 -3 -4 71 -106 164 -227 l169 -220 0 -82 c0 -46 -3
-83 -6 -83 -3 0 -120 98 -260 218 -140 119 -260 217 -266 217 -12 0 -138 -159
-138 -173 0 -4 116 -70 258 -147 l257 -140 -148 -3 -149 -3 -155 57 c-98 35
-159 52 -165 46 -5 -5 -22 -47 -38 -93 l-29 -84 451 -3 c248 -1 453 -1 455 1
2 2 2 208 1 459 l-3 454 -32 -8z"/>
<path d="M7400 8640 l0 -460 464 0 464 0 -17 58 c-10 31 -25 74 -34 94 -15 36
-17 37 -44 27 -15 -6 -83 -31 -150 -55 -122 -44 -123 -45 -239 -42 l-117 3
214 129 c118 71 218 133 223 137 12 11 -126 199 -146 199 -5 0 -124 -103 -265
-230 -141 -126 -260 -230 -265 -230 -4 0 -8 29 -8 64 l0 64 90 126 c49 68 128
177 175 242 47 64 85 120 85 125 0 10 -110 83 -169 113 -18 10 -37 14 -41 9
-4 -4 -33 -68 -66 -140 -32 -73 -62 -133 -67 -133 -5 0 -7 77 -5 170 l3 170
-35 10 c-19 6 -38 10 -42 10 -5 0 -8 -207 -8 -460z"/>
<path d="M4650 7473 c0 -731 5 -1396 10 -1479 22 -360 92 -637 235 -929 215
-441 479 -707 1235 -1246 330 -236 855 -593 870 -593 14 0 271 174 670 452
635 444 971 720 1161 955 310 383 474 817 509 1342 10 148 15 2785 5 2785 -10
0 -980 -353 -987 -359 -4 -3 7 -49 24 -101 16 -52 32 -101 34 -107 3 -10 97
-13 429 -13 l425 0 0 -325 0 -325 -420 0 c-365 0 -420 -2 -420 -15 0 -29 -63
-212 -102 -293 -89 -187 -255 -388 -427 -518 -102 -77 -304 -180 -418 -214
l-83 -25 0 -1368 0 -1367 -352 2 -353 3 -3 1366 -2 1367 -92 32 c-321 112
-593 334 -768 629 -50 83 -111 232 -136 329 l-18 72 -443 0 -443 0 0 325 0
325 449 0 448 0 37 111 c20 61 36 113 34 114 -4 5 -1094 395 -1102 395 -3 0
-6 -597 -6 -1327z m3794 -1125 c46 -68 113 -246 128 -342 l11 -74 30 45 c31
46 99 103 124 103 33 0 -9 -126 -59 -181 l-33 -35 75 0 c91 0 198 -31 258 -73
38 -28 127 -129 119 -137 -1 -2 -31 6 -66 16 -75 24 -211 26 -288 6 -130 -35
-245 -109 -307 -199 l-38 -56 -38 47 c-111 141 -277 222 -451 222 -67 0 -156
-16 -201 -35 -27 -11 -22 7 17 57 76 97 192 150 331 152 l82 1 -31 34 c-47 54
-94 181 -67 181 33 0 102 -58 143 -119 l16 -24 4 24 c3 13 9 49 15 79 16 88
68 212 123 289 27 39 53 71 58 71 5 0 25 -24 45 -52z m-3335 -608 c74 -74 170
-128 276 -155 74 -19 240 -22 320 -5 183 38 336 163 420 344 20 42 35 64 40
57 4 -7 9 -47 12 -89 14 -194 -99 -421 -270 -549 -190 -141 -398 -165 -602
-67 -230 109 -389 372 -372 615 3 43 8 83 12 89 4 6 27 -29 52 -81 34 -70 61
-108 112 -159z m3152 -217 c22 -20 61 -69 88 -109 l49 -73 32 56 c33 58 110
147 143 165 30 16 37 -6 37 -118 0 -228 -75 -495 -192 -677 l-31 -48 -19 28
c-32 47 -84 154 -111 228 -54 152 -92 397 -81 529 8 86 10 86 85 19z"/>
<path d="M5770 7521 c0 -6 12 -47 26 -93 121 -385 431 -702 822 -842 l72 -26
0 485 0 485 -460 0 c-283 0 -460 -4 -460 -9z"/>
<path d="M7400 7045 c0 -296 4 -485 9 -485 24 0 165 57 255 103 244 125 438
318 564 564 46 89 112 262 112 292 0 8 -134 11 -470 11 l-470 0 0 -485z"/>
<path d="M3153 7882 c-88 -85 -154 -181 -179 -257 -9 -27 -18 -51 -19 -53 -1
-1 -26 10 -55 25 -127 66 -279 3 -323 -133 -9 -27 -28 -106 -41 -176 -32 -157
-72 -269 -136 -378 -27 -47 -47 -86 -45 -88 9 -9 134 -31 177 -32 137 -1 294
97 366 228 27 49 30 51 44 35 21 -25 58 -89 58 -99 0 -5 -16 -20 -35 -34 -19
-14 -35 -29 -35 -34 0 -6 -12 -23 -27 -39 l-28 -29 30 -24 c17 -13 29 -30 27
-37 -1 -8 25 -33 58 -57 33 -24 60 -49 60 -55 0 -19 -42 -76 -73 -99 -25 -18
-42 -21 -118 -20 -49 1 -89 0 -89 -1 0 -2 13 -32 29 -67 50 -112 107 -152 218
-153 44 0 73 -4 73 -11 0 -24 62 -105 99 -130 37 -24 44 -25 71 -14 37 15 107
91 116 124 6 25 10 26 72 26 112 0 179 47 229 158 12 29 23 56 23 61 0 5 -37
7 -82 4 -75 -5 -86 -3 -118 19 -55 37 -102 118 -68 118 21 0 119 83 114 96 -3
7 9 24 27 38 l32 25 -28 29 c-15 15 -27 32 -27 38 0 5 -16 23 -37 40 l-36 30
28 52 c43 80 50 82 80 21 65 -127 230 -229 370 -229 41 1 162 24 171 33 3 3
-6 23 -19 44 -80 126 -125 248 -163 437 -15 72 -33 148 -40 169 -29 81 -87
130 -177 147 -73 13 -128 -1 -188 -50 l-36 -28 -21 67 c-36 111 -126 243 -212
311 l-38 30 -79 -78z m75 -489 c-3 -374 -5 -438 -17 -438 -10 0 -21 28 -36 90
-31 130 -61 218 -113 323 -46 94 -46 94 -34 149 6 31 25 84 41 117 29 62 133
196 151 196 7 0 9 -154 8 -437z m137 285 c37 -69 65 -173 65 -241 0 -22 -12
-61 -29 -95 -39 -78 -79 -189 -105 -296 -42 -168 -46 -135 -46 346 l1 443 39
-45 c22 -25 56 -75 75 -112z m400 -147 c45 -26 64 -68 96 -222 33 -160 65
-262 110 -350 17 -34 28 -64 24 -67 -15 -15 -113 -3 -167 21 -102 45 -166 120
-207 239 l-16 47 -40 -18 c-54 -24 -97 -69 -141 -147 -31 -55 -40 -64 -64 -64
l-28 0 14 59 c22 95 53 179 110 298 96 201 196 267 309 204z m-907 -2 c69 -26
170 -184 225 -354 33 -99 57 -202 49 -209 -18 -18 -44 -2 -66 42 -13 26 -37
65 -53 87 -34 46 -130 104 -138 83 -42 -124 -76 -181 -129 -221 -74 -57 -177
-93 -233 -82 l-33 6 29 57 c47 94 79 195 110 347 33 161 50 206 89 231 49 32
89 36 150 13z m372 -1060 c0 -239 -4 -254 -47 -169 -14 27 -23 62 -23 92 l0
47 -49 -25 c-72 -38 -118 -41 -161 -12 -19 13 -35 28 -35 32 0 5 19 14 42 21
94 28 153 89 175 183 l13 52 42 0 43 0 0 -221z m106 184 c19 -105 97 -185 202
-208 28 -6 31 -9 21 -22 -19 -23 -65 -43 -97 -43 -33 0 -99 25 -123 46 -15 13
-17 9 -23 -42 -7 -59 -24 -102 -50 -123 -14 -12 -16 8 -16 208 l0 221 40 0
c37 0 39 -2 46 -37z"/>
<path d="M10686 7898 c-96 -87 -172 -201 -209 -310 -6 -16 -11 -15 -58 9 -119
62 -263 10 -317 -115 -11 -26 -28 -88 -37 -137 -38 -205 -83 -334 -166 -468
-36 -58 -34 -61 56 -76 90 -16 138 -14 207 10 118 39 203 110 254 210 29 58
36 57 78 -22 30 -55 30 -57 -26 -90 -10 -5 -18 -16 -18 -24 0 -7 -14 -24 -31
-38 l-31 -24 34 -28 c18 -15 32 -33 31 -40 -2 -6 24 -31 57 -56 32 -24 59 -49
60 -55 0 -18 -43 -75 -73 -98 -24 -18 -42 -21 -118 -20 -102 1 -99 6 -52 -94
40 -85 117 -131 224 -132 51 0 57 -2 63 -23 8 -34 80 -112 115 -127 27 -11 35
-9 65 10 42 26 78 66 95 109 13 30 16 31 75 31 66 0 146 30 178 67 15 16 78
144 78 157 0 2 -37 2 -82 -1 -75 -5 -86 -3 -118 19 -54 37 -102 118 -69 118
18 0 114 81 114 95 0 8 13 27 29 43 l28 30 -30 22 c-17 13 -28 28 -26 35 3 6
-13 24 -36 40 l-40 28 26 46 c51 88 52 88 91 23 51 -85 99 -129 192 -175 78
-39 90 -42 165 -42 45 0 105 6 134 14 l52 13 -36 62 c-83 143 -114 230 -155
430 -32 157 -45 193 -88 239 -33 37 -67 54 -130 68 -62 13 -112 1 -171 -42
-23 -17 -46 -27 -50 -22 -4 4 -15 33 -24 63 -31 98 -115 222 -199 292 l-45 37
-66 -61z m54 -509 c0 -343 -3 -440 -12 -437 -7 3 -26 58 -43 124 -37 140 -64
215 -111 304 -20 39 -34 78 -34 100 1 49 41 158 81 216 31 46 107 134 115 134
2 0 4 -198 4 -441z m122 327 c42 -66 72 -150 82 -239 7 -54 5 -64 -43 -175
-45 -106 -72 -188 -101 -309 -25 -101 -30 -33 -30 394 l0 436 26 -24 c15 -13
44 -51 66 -83z m420 -182 c43 -22 65 -72 93 -209 32 -159 65 -269 110 -360 18
-38 31 -72 29 -75 -3 -2 -29 -4 -58 -4 -138 2 -289 135 -321 282 -3 17 -10 32
-13 32 -4 0 -30 -14 -59 -30 -51 -29 -84 -68 -133 -157 -19 -35 -29 -43 -52
-43 -26 0 -27 2 -22 33 12 66 74 236 120 332 92 189 194 255 306 199z m-895
-12 c33 -18 110 -108 136 -158 43 -85 77 -176 103 -273 29 -113 30 -131 5
-131 -12 0 -31 22 -57 67 -47 80 -85 120 -139 144 l-40 18 -16 -47 c-27 -80
-55 -126 -104 -171 -56 -51 -136 -90 -202 -97 -76 -8 -80 2 -40 82 45 90 81
204 107 345 12 63 30 133 40 156 35 80 125 108 207 65z m353 -1054 l0 -221
-20 18 c-24 22 -54 117 -47 151 5 27 -5 31 -23 10 -6 -8 -34 -22 -61 -31 -60
-20 -108 -14 -146 19 l-28 24 45 12 c59 16 89 32 124 66 34 35 61 87 70 137 7
35 9 37 46 37 l40 0 0 -222z m119 168 c21 -95 84 -160 179 -186 50 -13 51 -28
1 -52 -48 -25 -85 -22 -151 11 l-58 30 0 -50 c0 -54 -18 -106 -43 -128 -16
-12 -17 3 -17 208 l0 221 38 0 c39 0 39 0 51 -54z"/>
<path d="M1560 9763 c5 -10 45 -56 89 -102 l78 -84 42 79 c22 44 41 82 41 85
0 5 -222 39 -253 39 -4 0 -3 -8 3 -17z"/>
<path d="M12316 9754 c-59 -7 -111 -15 -114 -19 -3 -3 12 -42 33 -86 l40 -79
100 100 c113 113 118 106 -59 84z"/>
<path d="M1207 8869 c-60 -9 -117 -46 -147 -94 -28 -45 -38 -116 -19 -131 24
-19 550 -175 578 -172 31 4 50 47 50 121 2 92 -50 166 -150 217 -96 49 -221
73 -312 59z"/>
<path d="M12841 7598 c1 -24 4 -66 7 -94 l7 -50 125 59 125 60 -125 33 c-69
18 -128 33 -132 34 -5 0 -8 -19 -7 -42z"/>
<path d="M12543 6388 c-18 -23 -24 -84 -12 -138 16 -76 80 -139 175 -171 57
-20 89 -24 184 -24 103 0 120 3 164 25 66 33 103 81 117 153 10 50 10 60 -4
74 -12 12 -90 27 -279 54 -288 42 -331 45 -345 27z"/>
<path d="M1006 5865 c-61 -21 -81 -48 -81 -103 1 -60 11 -98 29 -105 7 -3 60
5 117 17 116 25 119 28 99 101 -23 81 -89 117 -164 90z"/>
<path d="M2245 3939 c-134 -26 -330 -170 -384 -282 -60 -124 29 -248 168 -234
120 13 321 146 389 257 29 48 33 62 30 111 -8 110 -90 170 -203 148z"/>
<path d="M8425 1621 c-48 -21 -60 -48 -59 -135 2 -159 117 -434 195 -466 41
-17 94 -5 120 28 33 42 23 164 -25 306 -71 210 -150 302 -231 267z"/>
<path d="M7471 1409 c-54 -11 -83 -49 -89 -111 -12 -143 67 -228 170 -185 49
20 71 65 70 138 -1 56 -27 129 -52 144 -24 15 -67 21 -99 14z"/>
<path d="M6459 1385 c-72 -39 -91 -214 -29 -270 27 -25 100 -31 137 -12 86 45
95 240 13 282 -36 19 -87 19 -121 0z"/>
</g>
</svg>
